PathFileType	4	(X/Y/Z)	Walk_125 04
DataRate	CameraRate	NumFrames	NumMarkers	Units	OrigDataRate	OrigDataStartFrame	OrigNumFrames
120	120	4	42	mm	120	1	128
Frame#	Time	LASI			RASI			LPSI			RPSI			RTH1			RTH2			RTH3			LTH1			LTH2			LTH3			RTB1			RTB2			RTB3			LTB1			LTB2			LTB3			RCAL			RTOE			RMT5			LCAL			LTOE			LMT5			LACR			RACR			CLAV			C7			RUA1			RUA2			RUA3			RLEL			RMEL			LUA1			LUA2			LUA3			LLEL			LMEL			RFAsuperior			RFAradius			RFAulna			LFAsuperior			LFAradius			LFAulna		
		X1	Y1	Z1	X2	Y2	Z2	X3	Y3	Z3	X4	Y4	Z4	X5	Y5	Z5	X6	Y6	Z6	X7	Y7	Z7	X8	Y8	Z8	X9	Y9	Z9	X10	Y10	Z10	X11	Y11	Z11	X12	Y12	Z12	X13	Y13	Z13	X14	Y14	Z14	X15	Y15	Z15	X16	Y16	Z16	X17	Y17	Z17	X18	Y18	Z18	X19	Y19	Z19	X20	Y20	Z20	X21	Y21	Z21	X22	Y22	Z22	X23	Y23	Z23	X24	Y24	Z24	X25	Y25	Z25	X26	Y26	Z26	X27	Y27	Z27	X28	Y28	Z28	X29	Y29	Z29	X30	Y30	Z30	X31	Y31	Z31	X32	Y32	Z32	X33	Y33	Z33	X34	Y34	Z34	X35	Y35	Z35	X36	Y36	Z36	X37	Y37	Z37	X38	Y38	Z38	X39	Y39	Z39	X40	Y40	Z40	X41	Y41	Z41	X42	Y42	Z42	

1	  0.008333	878.893539	1100.234389	-593.519594	873.156255	1107.246957	-331.637979	691.653860	1118.037923	-507.927743	692.699414	1117.934338	-425.991448	804.286478	935.412364	-277.180315	842.068124	824.597002	-290.571010	751.853289	716.804263	-313.860803	885.826022	894.134407	-644.700759	997.158281	813.399184	-636.608863	980.036370	683.806405	-621.163618	774.869061	408.100649	-401.430760	754.000813	341.956241	-334.787893	743.140429	248.329952	-417.041376	1066.506951	463.600266	-567.883146	1022.592112	383.194954	-621.554020	1029.922567	265.236142	-561.437890	604.241752	104.625889	-410.010675	834.426870	 72.159007	-446.913443	774.274212	 50.504415	-346.593630	907.493418	142.915580	-540.054143	1137.060629	101.275077	-554.113144	1056.436259	 78.658597	-630.223135	825.776275	1557.595350	-642.486390	843.732132	1566.386719	-295.371933	893.648328	1515.182678	-438.861158	768.128754	1604.162562	-463.455614	837.528921	1454.945977	-219.003029	848.166802	1361.294649	-227.949775	782.676849	1342.479689	-195.087615	775.045578	1206.698777	-160.539617	755.163483	1197.083492	-232.718523	801.170721	1456.483201	-705.480532	813.295746	1384.193938	-694.760944	720.216863	1358.708332	-680.476721	724.650685	1194.365561	-710.957784	700.888593	1193.750177	-639.090498	861.533781	1152.700121	-135.865944	995.981151	1028.159601	-173.286691	946.231903	1000.294637	-124.499555	780.949459	1122.152723	-733.903588	832.127520	932.351128	-698.567900	770.974726	925.079576	-737.965227	
2	  0.016667	878.180159	1098.980674	-593.573933	871.984874	1106.293527	-331.784749	690.787924	1116.864621	-508.324821	691.816720	1116.745560	-426.678126	801.755561	934.668651	-277.250260	838.187151	823.632158	-290.497610	746.481727	716.765023	-313.545408	884.614501	892.827461	-645.010486	995.501246	811.669655	-636.367886	977.816939	681.608075	-621.253302	766.242291	407.934528	-401.362137	744.737909	341.688868	-334.585371	733.527657	248.202618	-416.497449	1070.241938	462.810041	-567.738490	1031.904332	380.362372	-622.363304	1044.528417	262.909596	-562.449607	594.015981	104.919079	-410.177027	824.123109	 71.938291	-446.902566	763.876184	 50.479314	-346.501586	929.119414	134.506991	-542.815432	1160.542800	104.540290	-555.100823	1081.853873	 78.506237	-632.012810	825.404601	1556.483666	-643.078373	843.411836	1565.232666	-295.864435	893.219377	1513.989714	-439.313437	767.826652	1603.047408	-463.861069	837.756556	1453.811081	-219.367987	848.651234	1360.229129	-228.355309	783.495847	1341.248643	-195.048454	776.693616	1205.341268	-160.334309	756.260472	1195.579733	-232.519362	800.383927	1455.379351	-705.809314	812.124209	1382.900144	-695.116823	718.924698	1357.930220	-680.624152	722.552981	1193.643728	-711.112113	699.294965	1193.104514	-639.216341	864.005623	1152.249061	-136.566302	999.698385	1029.644768	-175.760233	950.804032	1001.016061	-126.609317	777.935764	1121.007703	-734.223296	827.017396	930.445273	-699.504084	765.667865	924.032913	-738.808317	
3	  0.025000	877.546225	1097.646532	-593.630648	870.827767	1105.343563	-331.816580	689.939283	1115.607250	-508.750480	690.939938	1115.483755	-427.305248	799.328308	933.858199	-277.262923	834.396329	822.669674	-290.398779	741.220479	716.694479	-313.212828	883.324891	891.328279	-645.339003	993.543630	809.566845	-636.222142	975.289898	679.241027	-621.358201	757.675013	407.686455	-401.121466	735.509307	341.447858	-334.380511	723.943887	248.075732	-416.022414	1073.761210	461.993006	-567.740218	1041.011352	377.773618	-623.208918	1058.779546	260.977112	-563.321445	583.788461	105.220417	-410.383046	813.802646	 71.707290	-446.886642	753.454159	 50.447649	-346.436598	950.472032	126.688584	-545.750938	1183.319778	108.532552	-555.515008	1106.971060	 79.129978	-633.547365	825.087307	1555.242369	-643.643338	843.120137	1564.017421	-296.386814	892.807082	1512.695583	-439.794810	767.520183	1601.841602	-464.300583	837.993645	1452.612537	-219.807037	849.161985	1359.085071	-228.854173	784.323392	1339.944672	-195.078416	778.313393	1203.941082	-160.210420	757.335963	1194.039002	-232.388628	799.709633	1454.176679	-706.205477	811.072052	1381.569605	-695.482987	717.746541	1357.084830	-680.831250	720.566094	1192.852812	-711.289139	697.689952	1192.396523	-639.357063	866.443203	1151.699684	-137.389952	1003.270064	1030.985866	-178.266737	955.225810	1001.633169	-128.724113	775.046610	1119.793363	-734.609908	822.018731	928.483860	-700.436841	760.484850	922.924824	-739.642907	
4	  0.033333	877.031374	1096.189721	-593.681684	869.714940	1104.350449	-331.713926	689.152057	1114.206231	-509.220384	690.098359	1114.073287	-427.875611	797.076480	932.951006	-277.161235	830.749816	821.688190	-290.310281	736.140152	716.583330	-312.867805	881.891820	889.529119	-645.712986	991.121793	806.877924	-636.224365	972.309442	676.588629	-621.487196	749.219635	407.302388	-400.675554	726.341801	341.242624	-334.189331	714.428530	247.954009	-415.682054	1076.935631	461.148864	-567.955717	1049.729257	375.594756	-624.107882	1072.399937	259.687865	-564.017349	573.568910	105.543611	-410.647207	803.473450	 71.461612	-446.870769	743.002296	 50.405274	-346.422250	971.286573	119.851203	-548.929756	1204.865775	113.659762	-554.994675	1131.474911	 80.937801	-634.588852	824.852562	1553.795176	-644.167307	842.875599	1562.709798	-296.966700	892.422945	1511.242665	-440.319659	767.210624	1600.494105	-464.797101	838.234752	1451.315984	-220.359964	849.708899	1357.823453	-229.491736	785.153836	1338.526049	-195.226948	779.879280	1202.469726	-160.219721	758.355429	1192.447312	-232.373235	799.209025	1452.820691	-706.693457	810.209629	1380.170318	-695.869724	716.749664	1356.130015	-681.129629	718.760171	1191.949242	-711.507833	696.095965	1191.589527	-639.534063	868.799939	1151.002146	-138.399233	1006.598584	1032.096015	-180.815510	959.391426	1002.078206	-130.850621	772.367727	1118.468802	-735.097005	817.211216	926.466432	-701.386021	755.514710	921.721263	-740.471323	
